<svg width="295" height="73" viewBox="0 0 295 73" fill="none" xmlns="http://www.w3.org/2000/svg">
<mask id="mask0_116_993" style="mask-type:luminance" maskUnits="userSpaceOnUse" x="0" y="0" width="89" height="73">
<path d="M0 0H88.8229V73H0V0Z" fill="white"/>
</mask>
<g mask="url(#mask0_116_993)">
<path d="M9.146 55.6459L9.36995 16.0938H4.9012V66.4167C11.0418 64.8334 17.2033 63.8282 23.4116 63.7813C29.1408 63.7448 34.87 64.5469 40.62 66.4896C37.047 63.6042 33.0679 61.4792 28.8231 60.0938C23.4741 58.3542 17.6929 57.7761 11.771 58.2813C10.4272 58.3907 9.26058 57.3959 9.146 56.0625C9.13037 55.9167 9.13037 55.7813 9.146 55.6459ZM74.7293 14.0261C74.7137 13.9115 74.6981 13.7917 74.6981 13.6615C74.6981 13.5365 74.7085 13.4167 74.7293 13.2917V5.28649C69.1043 4.75524 63.3075 5.37503 58.2502 7.28649C53.521 9.08336 49.4429 12.0261 46.7866 16.2448V61.8594C50.9116 59.1094 55.1304 56.849 59.4585 55.3073C64.396 53.5469 69.4741 52.7136 74.7293 53.1302V14.0261ZM79.5939 11.2344H86.1825C87.521 11.2344 88.6095 12.3229 88.6095 13.6615V69.5886C88.6095 70.9271 87.521 72.0157 86.1825 72.0157C85.9064 72.0157 85.6408 71.9688 85.396 71.8854C78.62 69.9479 71.8856 68.6563 65.2189 68.6146C58.7189 68.5729 52.2241 69.7188 45.6981 72.5886C45.297 72.8542 44.8127 73 44.3179 72.9948C43.8231 73 43.3439 72.8542 42.9325 72.5886C36.4168 69.7084 29.9116 68.5729 23.4116 68.6146C16.745 68.6563 10.0158 69.9479 3.23454 71.8854C2.98975 71.9688 2.72412 72.0157 2.44808 72.0157C1.12516 72.0209 0.0366211 70.9323 0.0366211 69.5938V13.6615C0.0366211 12.3229 1.12516 11.2344 2.4637 11.2344H9.39079L9.43245 3.12503C9.44287 1.95836 10.2606 0.994824 11.3647 0.765656C17.7606 -0.567678 25.5314 -0.239553 32.3439 2.36982C37.047 4.17191 41.3231 7.0417 44.4429 11.1927C47.5939 7.32295 51.8075 4.54691 56.5418 2.75003C63.0158 0.296906 70.4845 -0.296844 77.5106 0.734406C78.7189 0.90628 79.5887 1.95316 79.5887 3.13545V11.2344H79.5939ZM49.146 66.125C54.5158 64.4375 59.8804 63.7448 65.2397 63.7761C71.4481 63.8125 77.6095 64.8282 83.7554 66.4115V16.0938H79.5939V55.8594C79.5939 57.1979 78.5054 58.2865 77.1668 58.2865C76.9689 58.2865 76.7814 58.2657 76.6043 58.224C71.2814 57.3854 66.1304 58.0782 61.0991 59.8698C57.047 61.3177 53.0679 63.4792 49.146 66.125ZM41.9272 61.3907V16.1719C39.3856 11.6875 35.271 8.68753 30.62 6.90628C25.3491 4.89066 19.4325 4.43753 14.271 5.17191L13.995 53.2813C19.6252 53.0834 25.1356 53.7917 30.3179 55.4844C34.4377 56.8282 38.3491 58.7917 41.9272 61.3907Z" fill="black"/>
</g>
<path d="M104.139 17.63H111.764V48.13H123.868V55.755H104.139V17.63Z" fill="black"/>
<path d="M157.783 42.4842C157.783 45.0675 157.283 47.2915 156.283 49.1508C155.294 50.9998 153.981 52.4738 152.346 53.5675C150.705 54.6665 148.908 55.4008 146.95 55.7758C145.002 56.1508 143.038 56.1508 141.054 55.7758C139.08 55.4008 137.273 54.6665 135.637 53.5675C134.012 52.4738 132.7 50.9998 131.7 49.1508C130.71 47.2915 130.221 45.0675 130.221 42.4842V17.63H137.846V42.4217C137.846 44.0206 138.262 45.2967 139.096 46.255C139.929 47.2133 140.955 47.8592 142.179 48.1925C143.413 48.5154 144.643 48.5154 145.867 48.1925C147.085 47.8592 148.117 47.2133 148.95 46.255C149.794 45.2967 150.221 44.0206 150.221 42.4217V17.63H157.783V42.4842Z" fill="black"/>
<path d="M190.483 26.4841C189.759 26.083 188.889 25.708 187.879 25.3591C186.863 24.9997 185.525 24.8174 183.858 24.8174C181.691 24.8174 179.842 25.2445 178.316 26.0883C176.785 26.9216 175.556 28.0362 174.629 29.4216C173.712 30.7966 173.092 32.3122 172.775 33.9633C172.452 35.6195 172.452 37.2705 172.775 38.9216C173.092 40.5778 173.712 42.0987 174.629 43.4841C175.556 44.8747 176.785 45.9841 178.316 46.8174C179.842 47.6508 181.691 48.0674 183.858 48.0674C185.525 48.0674 186.988 47.8747 188.254 47.4841C189.514 47.0987 190.504 46.7237 191.212 46.3591L192.233 54.2549C191.066 54.7289 189.712 55.1195 188.171 55.4216C186.639 55.7133 185.202 55.8591 183.858 55.8591C180.618 55.8591 177.796 55.3174 175.379 54.2341C172.962 53.1508 170.941 51.6872 169.316 49.8383C167.702 47.9945 166.493 45.9216 165.691 43.6299C164.9 41.3278 164.504 38.9528 164.504 36.5049C164.504 34.0466 164.9 31.6716 165.691 29.3799C166.493 27.0883 167.702 25.0205 169.316 23.1716C170.941 21.3278 172.962 19.8591 175.379 18.7758C177.796 17.6924 180.618 17.1508 183.858 17.1508C186.634 17.1508 189.139 17.6455 191.379 18.6299L190.483 26.4841Z" fill="black"/>
<path d="M205.941 55.755H198.316V17.63H205.941V55.755Z" fill="black"/>
<path d="M225.882 17.63C229.049 17.63 231.819 18.1665 234.194 19.2342C236.58 20.2915 238.569 21.729 240.153 23.5467C241.736 25.354 242.924 27.3956 243.715 29.6717C244.517 31.9529 244.924 34.2915 244.924 36.6925C244.924 39.0988 244.517 41.4373 243.715 43.7133C242.924 45.979 241.736 48.0206 240.153 49.8383C238.569 51.6456 236.58 53.0831 234.194 54.1508C231.819 55.2238 229.049 55.755 225.882 55.755H214.528V17.63H225.882ZM225.882 25.255H222.153V48.13H225.882C228.017 48.13 229.84 47.7238 231.34 46.9008C232.851 46.0831 234.059 44.9946 234.965 43.63C235.882 42.255 236.486 40.755 236.778 39.13C237.08 37.4946 237.08 35.8696 236.778 34.255C236.486 32.63 235.882 31.13 234.965 29.755C234.059 28.38 232.851 27.2915 231.34 26.4842C229.84 25.6665 228.017 25.255 225.882 25.255Z" fill="black"/>
<g clip-path="url(#clip0_116_993)">
<path d="M256.986 50.3473C255.165 48.5309 253.721 46.3724 252.736 43.996C251.752 41.6196 251.247 39.0722 251.25 36.5C251.25 25.6841 260.017 16.9166 270.833 16.9166C281.649 16.9166 290.417 25.6841 290.417 36.5C290.417 47.3158 281.649 56.0833 270.833 56.0833H251.25L256.986 50.3473ZM263 38.4583C263 40.5358 263.825 42.5283 265.294 43.9973C266.763 45.4663 268.756 46.2916 270.833 46.2916C272.911 46.2916 274.903 45.4663 276.372 43.9973C277.841 42.5283 278.667 40.5358 278.667 38.4583H263Z" fill="black"/>
</g>
<defs>
<clipPath id="clip0_116_993">
<rect width="47" height="47" fill="white" transform="translate(247.333 13)"/>
</clipPath>
</defs>
</svg>
